<svg width="14" height="14" viewBox="0 0 14 14" fill="none" xmlns="http://www.w3.org/2000/svg">
<path d="M13.1905 2.54548C11.9957 2.54548 11.0238 1.54639 11.0238 0.318204C11.0238 0.140021 10.8876 0 10.7143 0C10.541 0 10.4048 0.140021 10.4048 0.318204C10.4048 1.54639 9.43288 2.54548 8.23812 2.54548C8.06478 2.54548 7.92857 2.68545 7.92857 2.86364C7.92857 3.04182 8.06478 3.18184 8.23812 3.18184C9.43288 3.18184 10.4048 4.18093 10.4048 5.40912C10.4048 5.5873 10.541 5.72727 10.7143 5.72727C10.8876 5.72727 11.0238 5.5873 11.0238 5.40912C11.0238 4.18093 11.9957 3.18184 13.1905 3.18184C13.3638 3.18184 13.5 3.04182 13.5 2.86364C13.5 2.68545 13.3638 2.54548 13.1905 2.54548Z" fill="#2BA9F4"/>
<path fill-rule="evenodd" clip-rule="evenodd" d="M0.887678 4.59806C0.370774 4.06669 0.370774 3.20518 0.887678 2.67382L1.86296 1.67125C2.37987 1.13989 3.21794 1.13989 3.73484 1.67125L12.4933 10.6747C12.7517 10.9404 12.881 11.2886 12.881 11.6368C12.881 11.6937 12.8775 11.7505 12.8706 11.8071C12.8353 12.0966 12.7095 12.3766 12.4933 12.5989L11.518 13.6015C11.0011 14.1328 10.163 14.1328 9.64611 13.6015L0.887678 4.59806ZM2.56492 2.39284L1.58963 3.39541C1.46041 3.52825 1.46041 3.74363 1.58963 3.87647L3.53723 5.87854C3.59277 5.78188 3.66094 5.69076 3.74173 5.6077L4.71702 4.60514C4.79781 4.52208 4.88645 4.45201 4.98049 4.39492L3.03289 2.39284C2.90366 2.26 2.69415 2.26 2.56492 2.39284Z" fill="#2BA9F4"/>
</svg>
